<?xml version="1.0" encoding="utf-8"?>
<!-- Generator: Adobe Illustrator 20.1.0, SVG Export Plug-In . SVG Version: 6.00 Build 0)  -->
<svg version="1.1" id="Layer_1" xmlns="http://www.w3.org/2000/svg" xmlns:xlink="http://www.w3.org/1999/xlink" x="0px" y="0px"
	 viewBox="0 0 600 600" style="enable-background:new 0 0 600 600;" xml:space="preserve">
<style type="text/css">
	.st0{fill:#004A4F;}
</style>
<g>
	<path class="st0" d="M300,1.3L41.2,150.7v298.9L300,599l258.8-149.4V150.7L300,1.3z M170.9,490c9.3-7.2,19.8-11.3,33.2-11.5
		c15.1-0.2,28.7,5.6,38.5,15.6c2.8,2.7,6.4,4.4,10.5,4.4c4.5,0,8.1-1.8,10.8-5c9.2-9.6,21.9-15.5,36.2-15.5c14.3,0,26.9,5.5,36,15.1
		c2.7,3.3,6.8,5.4,11.4,5.4c4.2,0,8.2-1.8,10.8-4.7c9.9-10,23.4-15.8,38.5-15.8c12.5,0,24.1,4.4,33.3,11.5l-130.1,76L170.9,490z
		 M529.4,431.5l-72.3,42.2c-0.1-0.1-0.1-0.2-0.2-0.3c-13.5-15.5-33.7-25.3-56-25.3c-15.9,0-31.2,4.5-43.3,13c-2.4,2-5.7,3.2-9.2,3.2
		c-3.8,0-7.2-1.4-9.8-3.7c-6.9-5.1-15-8.8-23.7-10.9V320h18.2c52.8,0,95.5-42.8,95.5-95.5c0-3-2.5-5.5-5.5-5.5h-27.8
		c-49.2,0-89.6,37.1-94.9,84.9H300v-19.2c0-52.8-42.8-95.5-95.5-95.5c-3,0-5.5,2.5-5.5,5.5v27.8c0,49.5,37.7,90.3,86,95v132.6
		c-8.5,2.2-16.3,6.1-23.2,11.3c-2.5,2-5.5,3.3-9.1,3.3c-3.5,0-6.4-1.1-9.1-3.2c-12.1-8.4-26.7-13.4-42.6-13.4
		c-22.2,0-42.6,10.3-56.4,25.7c-0.2,0.2-0.3,0.5-0.5,0.7l-73.6-43V168.8L300,34.8l229.4,134V431.5z"/>
</g>
</svg>
